<svg width="0" height="0" class="hidden">
  <symbol  id="html" xmlns="http://www.w3.org/2000/svg" viewBox="0 0 128 128">
    <path d="M19.57 27l8.087 89.92 36.29 9.682 36.4-9.5L108.43 27H19.57zM91.6 47.47l-.507 5.834L90.88 56H48.31l1.017 12h40.54l-.27 2.23-2.615 28.91-.192 1.7-22.817 6.14-22.777-5.916L39.65 84h11.168l.79 8.46 12.385 3.14.006-.234v.012l12.412-2.65L77.708 79H39.153l-3-34h55.724l-.266 2.47zM27.956 1.627h5.622v5.556h5.144V1.627h5.623V18.45h-5.623v-5.633H33.58v5.633h-5.623V1.627zm23.782 5.58h-4.95v-5.58h15.525v5.58H57.36V18.45h-5.623V7.206zm13.04-5.58h5.862l3.607 5.91 3.603-5.91h5.865V18.45h-5.6V10.11l-3.867 5.98h-.098l-3.87-5.98v8.338h-5.502V1.627zm21.736 0h5.624V12.89h7.907v5.56h-13.53V1.627z"/>
  </symbol>
  <symbol  id="css" xmlns="http://www.w3.org/2000/svg" viewBox="0 0 128 128">
    <path d="M19.67 26l8.07 90.493 36.206 10.05 36.307-10.063L108.33 26H19.67zm69.2 50.488L86.53 98.38l.01 1.875-22.557 6.3-22.72-6.225L39.726 83h11.14l.8 8.766 12.347 3.295-.004.015v-.032l12.394-3.495 1.3-14.55H51.795l-.222-2.355-.77-8.645H78.69l1.014-11H37.23l-.223-2.6-.506-6.03-.265-3.38h55.597l-.267 3.334-2.685 30.154M89 14.374L81.85 6H89V1H73v4.363L81.4 13H73v5h16zm-19 0L63.193 6H70V1H55v4.363L62.733 13H55v5h15zM52 13h-8V6h8V1H38v17h14z"/>
  </symbol>
  <symbol  id="sass" xmlns="http://www.w3.org/2000/svg" viewBox="0 0 128 128">
    <path fill-rule="evenodd" clip-rule="evenodd" d="M1.219 56.156c0 .703.207 1.167.323 1.618.756 2.933 2.381 5.45 4.309 7.746 2.746 3.272 6.109 5.906 9.554 8.383 2.988 2.148 6.037 4.248 9.037 6.38.515.366 1.002.787 1.561 1.236-.481.26-.881.489-1.297.7-3.959 2.008-7.768 4.259-11.279 6.986-2.116 1.644-4.162 3.391-5.607 5.674-2.325 3.672-3.148 7.584-1.415 11.761.506 1.22 1.278 2.274 2.367 3.053.353.252.749.502 1.162.6 1.058.249 2.136.412 3.207.609l3.033-.002c3.354-.299 6.407-1.448 9.166-3.352 4.312-2.976 7.217-6.966 8.466-12.087.908-3.722.945-7.448-.125-11.153-.099-.344-.224-.681-.354-1.014-.13-.333-.283-.657-.463-1.072l6.876-3.954.103.088c-.125.409-.258.817-.371 1.23-.817 2.984-1.36 6.02-1.165 9.117.208 3.3 1.129 6.389 3.061 9.146 1.562 2.23 5.284 2.313 6.944.075.589-.795 1.16-1.626 1.589-2.513 1.121-2.315 2.159-4.671 3.23-7.011l.187-.428c-.077 1.108-.167 2.081-.208 3.055-.064 1.521.025 3.033.545 4.48.445 1.238 1.202 2.163 2.62 2.326.97.111 1.743-.333 2.456-.896 1.114-.879 2.019-1.965 2.691-3.199 1.901-3.491 3.853-6.961 5.576-10.54 1.864-3.871 3.494-7.855 5.225-11.792l.286-.698c.409 1.607.694 3.181 1.219 4.671.61 1.729 1.365 3.417 2.187 5.058.389.775.344 1.278-.195 1.928-2.256 2.72-4.473 5.473-6.692 8.223-.491.607-.98 1.225-1.389 1.888-.247.403-.411.894-.48 1.364-.133.898.422 1.764 1.383 1.971.878.189 1.813.259 2.708.193 3.097-.228 5.909-1.315 8.395-3.157 3.221-2.386 4.255-5.642 3.475-9.501-.211-1.047-.584-2.065-.947-3.074-.163-.455-.174-.774.123-1.198 2.575-3.677 4.775-7.578 6.821-11.569.081-.157.164-.314.306-.482.663 3.45 1.661 6.775 3.449 9.792-.912.879-1.815 1.676-2.632 2.554-1.799 1.934-3.359 4.034-4.173 6.595-.35 1.104-.619 2.226-.463 3.405.242 1.831 1.742 3.021 3.543 2.604 3.854-.892 7.181-2.708 9.612-5.925 1.636-2.166 1.785-4.582 1.1-7.113-.188-.688-.411-1.365-.651-2.154.951-.295 1.878-.649 2.837-.868 4.979-1.136 9.904-.938 14.702.86 2.801 1.05 5.064 2.807 6.406 5.571 1.639 3.379.733 6.585-2.452 8.721-.297.199-.637.356-.883.605-.151.153-.242.459-.205.67.021.123.346.277.533.275 1.047-.008 1.896-.557 2.711-1.121 2.042-1.413 3.532-3.314 3.853-5.817l.063-.188-.077-1.63c-.031-.094.023-.187.016-.258-.434-3.645-2.381-6.472-5.213-8.688-3.28-2.565-7.153-3.621-11.249-3.788-3.338-.136-6.619.36-9.765 1.503-.897.325-1.786.71-2.688 1.073-.121-.219-.251-.429-.358-.646-.926-1.896-2.048-3.708-2.296-5.882-.176-1.544-.392-3.086-.025-4.613.353-1.469.813-2.913 1.246-4.362.223-.746.066-1.164-.646-1.5-.248-.117-.518-.219-.786-.258-1.75-.254-3.476-.109-5.171.384-.6.175-1.036.511-1.169 1.175-.076.381-.231.746-.339 1.122-.443 1.563-.757 3.156-1.473 4.645-1.794 3.735-3.842 7.329-5.938 10.897-.227.385-.466.763-.752 1.23-.736-1.54-1.521-2.922-1.759-4.542-.269-1.832-.481-3.661-.025-5.479.339-1.356.782-2.687 1.19-4.025.193-.636.104-.97-.472-1.305-.291-.169-.62-.319-.948-.368-1.815-.269-3.603-.128-5.354.438-.543.176-.828.527-.994 1.087-.488 1.652-.904 3.344-1.589 4.915-2.774 6.36-5.628 12.687-8.479 19.013-.595 1.321-1.292 2.596-1.963 3.882-.17.326-.418.613-.63.919-.17-.201-.236-.339-.235-.477.005-.813-.092-1.65.063-2.436.469-2.378 1.009-4.743 1.578-7.099.47-1.946 1.017-3.874 1.538-5.807.175-.647.178-1.252-.287-1.796-.781-.911-2.413-1.111-3.381-.409l-.428.242.083-.69c.204-1.479.245-2.953-.161-4.41-.506-1.816-1.802-2.861-3.686-2.803-.878.027-1.8.177-2.613.497-3.419 1.34-6.048 3.713-8.286 6.568-.203.259-.471.495-.757.654-2.893 1.604-5.795 3.188-8.696 4.778l-3.229 1.769c-.866-.826-1.653-1.683-2.546-2.41-2.727-2.224-5.498-4.393-8.244-6.592-2.434-1.949-4.792-3.979-6.596-6.56-1.342-1.92-2.207-4.021-2.29-6.395-.105-3.025.753-5.789 2.293-8.362 1.97-3.292 4.657-5.934 7.611-8.327 3.125-2.53 6.505-4.678 10.008-6.639 4.901-2.743 9.942-5.171 15.347-6.774 5.542-1.644 11.165-2.585 16.965-1.929 2.28.258 4.494.78 6.527 1.895 1.557.853 2.834 1.97 3.428 3.716.586 1.718.568 3.459.162 5.204-.825 3.534-2.76 6.447-5.195 9.05-3.994 4.267-8.866 7.172-14.351 9.091-3.165 1.107-6.421 1.802-9.765 2.083-2.729.229-5.401-.013-7.985-.962-1.711-.629-3.201-1.591-4.399-2.987-.214-.25-.488-.521-.887-.287-.391.23-.46.602-.329.979.219.626.421 1.278.762 1.838.857 1.405 2.107 2.424 3.483 3.298 2.643 1.681 5.597 2.246 8.66 2.377 4.648.201 9.183-.493 13.654-1.74 6.383-1.78 11.933-4.924 16.384-9.884 3.706-4.13 6.353-8.791 6.92-14.419.277-2.747-.018-5.438-1.304-7.944-1.395-2.715-3.613-4.734-6.265-6.125-3.862-2.025-8.03-3.204-12.332-3.204h-4.31c-5.21 0-10.247 1.493-15.143 3.274-3.706 1.349-7.34 2.941-10.868 4.703-7.683 3.839-14.838 8.468-20.715 14.833-2.928 3.171-5.407 6.67-6.833 10.79-.417 1.206-.813 2.499-1.111 3.746m27.839 36.013c-.333 4.459-2.354 8.074-5.657 11.002-1.858 1.646-3.989 2.818-6.471 3.23-.9.149-1.821.185-2.694-.188-1.245-.532-1.524-1.637-1.548-2.814-.037-1.876.62-3.572 1.521-5.186 1.176-2.104 2.9-3.708 4.741-5.206 2.9-2.361 6.046-4.359 9.268-6.245l.243-.1c.498 1.84.735 3.657.597 5.507zm25.158-19.379c-.235 1.424-.529 2.849-.945 4.229-1.438 4.777-3.285 9.406-5.282 13.973-.369.845-.906 1.616-1.373 2.417-.072.124-.179.231-.283.334-.578.571-1.126.541-1.418-.206-.34-.868-.549-1.797-.729-2.716-.121-.617-.092-1.265-.13-1.897.039-4.494 1.41-8.578 3.736-12.38.959-1.568 2.003-3.062 3.598-4.054.49-.305 1.04-.55 1.595-.706.85-.239 1.372.154 1.231 1.006zm17.164 21.868l6.169-7.203c.257 2.675-4.29 8.015-6.169 7.203zm19.703-4.847c-.436.25-.911.43-1.358.661-.409.212-.544-.002-.556-.354-.008-.239.027-.489.093-.721.833-2.938 2.366-5.446 4.647-7.486l.16-.082c1.085 3.035-.169 6.368-2.986 7.982z" />
  </symbol>
  <symbol  id="js" xmlns="http://www.w3.org/2000/svg" viewBox="0 0 128 128">
    <path d="M2 1v125h125V1H2zm66.12 106.513c-1.845 3.75-5.367 6.212-9.448 7.4-6.27 1.44-12.27.62-16.73-2.06-2.986-1.832-5.318-4.652-6.9-7.9l9.52-5.83c.083.035.333.487.667 1.07 1.214 2.034 2.26 3.474 4.32 4.485 2.022.7 6.46 1.13 8.175-2.427 1.047-1.8.714-7.628.714-14.065L58.48 58h11.71v32.152c.025 6.58.596 12.446-2.07 17.36zm48.574-3.308c-4.07 13.922-26.762 14.374-35.83 5.176-1.916-2.165-3.117-3.296-4.26-5.795L86.11 98.1c2.547 3.915 4.902 6.068 9.14 6.95 5.748.702 11.53-1.273 10.234-7.378-1.333-4.986-11.77-6.2-18.873-11.53-7.21-4.843-8.9-16.61-2.975-23.335 1.975-2.487 5.343-4.343 8.877-5.235l3.688-.477c7.08-.143 11.507 1.727 14.756 5.355.904.916 1.642 1.904 3.022 4.045l-9.163 5.88c-1.154-2.486-3.07-4.046-5.093-4.724-3.142-.952-7.104.083-7.926 3.403-.285 1.023-.226 1.975.227 3.665 1.273 2.903 5.545 4.165 9.377 5.926 11.03 4.474 14.756 9.27 15.672 14.98.882 4.916-.213 8.105-.38 8.58z"/>
  </symbol>
  <symbol  id="vuejs" xmlns="http://www.w3.org/2000/svg" viewBox="0 0 128 128">
    <path d="M31.393 97.2a1.95 1.95 0 0 0-1.074.322c-.324.214-.62.583-.62 1.057 0 .063-.037.204.084.445l-.03-.076 6.57 21.318c.117.397.395.7.7.875s.662.238.998.238c.714 0 1.495-.34 1.734-1.106l.002-.002 6.565-21.396v-.076c0 .104.03.042.03-.187 0-.48-.307-.837-.637-1.06a2 2 0 0 0-1.121-.352c-.498 0-1.07.3-1.262.875l-.002.008-5.312 17.727-5.332-17.697a1.18 1.18 0 0 0-.531-.717c-.245-.146-.513-.195-.77-.195zm52.336 1.1c-1.04 0-1.914.794-1.914 1.8s.86 1.822 1.914 1.822a1.85 1.85 0 0 0 1.853-1.822c0-.98-.835-1.8-1.853-1.8zm-15.406 6.826c-3.57 0-6.508 2.855-6.508 6.287v3.522c0 1.923.764 3.572 2.065 4.7s3.115 1.768 5.197 1.768c1.538 0 2.792-.343 3.688-.8.448-.234.806-.496 1.07-.78s.46-.598.46-.984c0-.355-.14-.664-.36-.94s-.57-.533-1.02-.533c-.325 0-.577.138-.795.27l-.67.424c-.495.285-1.153.563-2.3.563-1.3 0-2.366-.366-3.107-.984s-1.174-1.48-1.174-2.603v-.664h6.6c.703 0 1.484.002 2.156-.428s1.08-1.284 1.08-2.588c0-3.6-3-6.225-6.38-6.225zm24.793 0c-1.898 0-3.294.613-4.2 1.535s-1.28 2.12-1.28 3.242c0 1.43.578 2.45 1.404 3.107s1.855.987 2.836 1.283 1.92.56 2.553.95.977.814.977 1.705c0 .48-.145.86-.535 1.174s-1.082.56-2.205.56c-1.328 0-2.074-.332-2.615-.666-.27-.167-.486-.34-.7-.494s-.475-.318-.826-.318c-.422 0-.736.26-.926.53s-.3.58-.3.912c0 .4.2.77.484 1.086s.672.598 1.147.844c.948.5 2.254.834 3.807.834 1.686 0 3.07-.412 4.05-1.2s1.514-1.98 1.514-3.348c0-1.545-.56-2.654-1.387-3.387s-1.872-1.1-2.867-1.416-1.952-.54-2.596-.877-.952-.65-.952-1.37c0-.388.157-.876.55-1.26s1.033-.695 2.096-.695c.85 0 1.48.198 1.984.404l.68.3c.207.1.398.178.67.178.5 0 .827-.324 1.03-.627s.32-.602.32-.94c0-.425-.267-.727-.562-.955s-.666-.4-1.096-.568c-.86-.315-1.956-.518-3.057-.518zm-44.96.188c-.826 0-1.537.52-1.537 1.287V115c0 3.4 2.892 6.412 6.477 6.412 3.524 0 6.475-2.977 6.475-6.412v-8.43c0-.384-.208-.718-.486-.93s-.635-.326-1.02-.326a1.73 1.73 0 0 0-1.025.32c-.284.207-.512.54-.512.936V115c0 1.793-1.56 3.525-3.432 3.525-1.902 0-3.432-1.763-3.432-3.525v-8.398c0-.397-.218-.705-.488-.924a1.62 1.62 0 0 0-1.02-.363zm35.572 0c-.387 0-.746.1-1.03.314a1.2 1.2 0 0 0-.477.941v15.475c0 1.162-.08 2.138-.336 2.73s-.566.857-1.43.857c-.753 0-1.38.657-1.38 1.445a1.39 1.39 0 0 0 .375.965c.267.28.682.447 1.164.447 1.63 0 2.876-.722 3.62-1.897s1.033-2.748 1.033-4.55v-15.47c0-.4-.228-.746-.518-.95s-.646-.305-1.022-.305zm-15.44 2.5c2.048 0 3.432 1.715 3.432 3.463a1.29 1.29 0 0 1-.041.375c-.02.06-.02.054-.05.074-.06.04-.376.12-.98.12h-5.8v-.695c0-1.83 1.527-3.338 3.432-3.338zm9.75 9.63c-1.1 0-1.945.917-1.945 1.978 0 1.02.824 1.947 1.945 1.947 1.06 0 1.916-.9 1.916-1.947 0-1.087-.87-1.978-1.916-1.978zM7.942 0L51.6.14l12.524 21.385L76.66.14l43.4-.138-55.915 96.466zm111.23.558l-21.346.02-33.698 57.856L30.447.577 8.768.56l55.368 94.5z"/>
  </symbol>
  <symbol  id="gulp" xmlns="http://www.w3.org/2000/svg" viewBox="0 0 128 128">
    <path fill-rule="evenodd" d="M36.965 35.46l2.637 27.798c1.45-2.495 2.5-4.888 4.085-6.848 1.475-1.826 3.334-3.51 5.357-4.678 2.64-1.524 6.104-.09 6.96 2.614.23.725-.32 1.697-.51 2.556-.646-.34-1.48-.53-1.9-1.05-1.793-2.217-2.873-2.48-4.856-.563-3.7 3.576-5.78 8.056-6.573 13.09-.153.974.456 2.067.713 3.105 1.01-.348 2.185-.476 3.002-1.084 2.656-1.977 4.302-4.666 5.2-7.88.197-.696 1.265-1.145 1.933-1.708.32.658 1.05 1.433.897 1.954-1.407 4.84-2.934 9.65-4.536 14.43-.162.484-1.05.725-1.604 1.08-.223-.636-.692-1.302-.617-1.9.168-1.358.605-2.683.9-3.927l-7.24 3.333 1.323 14.985c.382 3.954 1.03 4.978 4.923 5.728 4.544.875 9.173 1.434 13.792 1.774a60.39 60.39 0 0 0 20.23-1.904c2.472-.664 3.458-2.3 3.635-4.717.162-2.235.524-4.456.775-6.685L86.985 71.6c-1.667 1.056-2.978 2.238-4.51 2.74-1.116.365-2.524-.17-3.803-.303.245-1.174.23-2.497.796-3.487.922-1.618 2.224-3.02 3.364-4.515l-.49-.59c-.817.483-1.832.8-2.413 1.485-1.182 1.394-2.34 2.886-3.13 4.52-1.324 2.735-2.333 5.622-3.518 8.426-.515 1.216-.96 3.076-2.684 2.366-1.845-.76-.547-2.386-.114-3.542.69-1.844 1.6-3.606 2.215-4.962l-5.294.614c-.752.064-1.646-.348-2.26-.07-2.045.924-3.34.553-3.766-1.71-.947.615-1.75 1.448-2.694 1.672-1.147.273-2.703.452-3.543-.12-.673-.46-.918-2.184-.688-3.196.457-2.012 1.31-3.946 2.122-5.86.502-1.185 1.007-3.077 2.7-2.253 1.674.813.154 2.185-.232 3.286l-1.813 5.1.96.58c.914-.794 2.053-1.44 2.693-2.415 1.048-1.592 1.68-3.452 2.673-5.086.41-.677 1.296-1.065 1.967-1.584.136.862.462 1.748.354 2.58-.107.84-.698 1.6-.98 2.442-.425 1.246-.768 2.52-1.2 3.97 2.043.078 2.918-.782 3.495-2.3l5.68-14.3c.343-.808 1.51-1.264 2.296-1.884.09.974.525 2.078.216 2.9-1.645 4.35-3.492 8.62-5.228 12.935-.293.727-.387 1.534-.572 2.304 3.06-1.375 5.612-2.895 6.544-6.146.228-.8 1.162-1.377 1.77-2.058l1.416 1.5c.43-.362.824-.774 1.29-1.075 1.47-.947 3.053-1.782 4.603-.315 1.604 1.517.4 2.995-.448 4.307-.912 1.43-2.03 2.73-3.057 4.086 2.312-1.5 5.47-2.158 5.89-5.378l2.837-23.625c.27-2.332.416-4.68.627-7.11-18.2 4.41-36.03 4.436-54.088-.07zm7.816 61.37c.877 2.317 2.21 4.593 2.558 7.01.737 5.147.924 10.372 1.446 15.554.076.755.565 1.792 1.175 2.124 8.98 4.88 18.047 5.726 27.21.39 1.367-.796 1.62-1.847 1.797-3.325.857-7.18-1.05-14.798 3.54-21.56-12.856 3.19-25.403 3.288-37.725-.193zm30.99-60.08c4.362-.42 8.67-1.445 12.985-2.29.813-.16 1.535-.778 2.3-1.185-1.007-.885-1.878-1.31-2.788-1.418l-13.603-1.508c-.684-.085-1.905-.93-1.854-1.083 1.32-3.98 1.256-8.485 4.254-11.84L88.48 4.776c-2.826-3.04-2.864-3.044-5.425-.383-1.448 1.504-2.77 3.15-4.342 4.512C72.9 13.943 68.818 19.9 68.022 27.777c-.183 1.805-1.174 2.457-3.07 2.485-6.256.09-12.52.263-18.76.674-3.093.203-6.148.997-9.22 1.523l-.028 1.15c1.923.593 3.81 1.372 5.773 1.75 10.944 2.098 21.99 2.458 33.056 1.39zM72.276 34c-2.477 2-4.524 2-6.5 0h6.5z"/>
  </symbol>
  <symbol  id="nodejs" xmlns="http://www.w3.org/2000/svg" viewBox="0 0 128 128">
    <path d="M114.325 80.749c-.29 0-.578-.076-.832-.224l-2.65-1.568c-.396-.221-.203-.3-.072-.345.528-.184.635-.227 1.198-.545.059-.033.136-.021.197.015l2.035 1.209c.074.041.179.041.246 0l7.937-4.581c.075-.042.122-.127.122-.215v-9.16c0-.09-.047-.173-.123-.219l-7.934-4.577c-.074-.042-.171-.042-.245 0l-7.933 4.578c-.076.045-.125.131-.125.218v9.16c0 .088.049.171.125.212l2.174 1.257c1.18.589 1.903-.105 1.903-.803v-9.045c0-.127.103-.228.23-.228h1.007c.125 0 .229.101.229.228v9.045c0 1.574-.857 2.477-2.35 2.477-.459 0-.82 0-1.828-.496l-2.081-1.198c-.515-.298-.832-.854-.832-1.448v-9.16c0-.595.317-1.15.832-1.446l7.937-4.587c.502-.283 1.169-.283 1.667 0l7.937 4.587c.514.297.833.852.833 1.446v9.16c0 .595-.319 1.148-.833 1.448l-7.937 4.582c-.252.147-.539.223-.834.223M116.778 74.438c-3.475 0-4.202-1.595-4.202-2.932 0-.126.103-.229.23-.229h1.026c.115 0 .21.082.228.194.154 1.045.617 1.572 2.718 1.572 1.671 0 2.383-.378 2.383-1.266 0-.512-.202-.891-2.8-1.146-2.172-.215-3.515-.694-3.515-2.433 0-1.601 1.35-2.557 3.612-2.557 2.543 0 3.801.883 3.96 2.777.006.064-.017.127-.06.176-.044.045-.104.073-.168.073h-1.031c-.107 0-.201-.075-.223-.179-.248-1.1-.848-1.451-2.479-1.451-1.825 0-2.037.637-2.037 1.112 0 .577.25.745 2.715 1.071 2.439.323 3.598.779 3.598 2.494.001 1.733-1.441 2.724-3.955 2.724M97.982 68.43c.313-.183.506-.517.506-.88v-2.354c0-.362-.192-.696-.506-.879l-8.364-4.856c-.315-.183-.703-.184-1.019-.002l-8.416 4.859c-.314.182-.508.517-.508.88v9.716c0 .365.196.703.514.884l8.363 4.765c.308.177.686.178.997.006l5.058-2.812c.161-.09.261-.258.262-.44.001-.184-.097-.354-.256-.445l-8.468-4.86c-.159-.091-.256-.259-.256-.44v-3.046c0-.182.097-.349.254-.439l2.637-1.52c.156-.091.35-.091.507 0l2.637 1.52c.158.091.255.258.255.439v2.396c0 .183.097.351.254.441.158.091.352.091.51-.001l5.039-2.932M88.984 67.974c.061-.034.135-.034.195 0l1.615.933c.06.035.097.1.097.169v1.865c0 .07-.037.134-.097.169l-1.615.932c-.06.035-.135.035-.195 0l-1.614-.932c-.061-.035-.098-.099-.098-.169v-1.865c0-.069.037-.134.098-.169l1.614-.933M67.083 71.854c0 .09-.048.174-.127.22l-2.89 1.666c-.079.046-.176.046-.254 0l-2.89-1.666c-.079-.046-.127-.13-.127-.22v-3.338c0-.09.049-.175.127-.221l2.89-1.668c.079-.047.176-.047.255 0l2.891 1.668c.078.046.126.131.126.221v3.338zm.781-24.716c-.157-.087-.349-.085-.505.006-.155.092-.251.258-.251.438v12.915c0 .126-.068.244-.177.308-.11.063-.246.063-.356 0l-2.108-1.215c-.314-.181-.701-.181-1.015 0l-8.418 4.858c-.315.182-.509.518-.509.881v9.719c0 .363.194.698.508.881l8.418 4.861c.314.182.702.182 1.017 0l8.42-4.861c.314-.183.508-.518.508-.881v-24.227c0-.368-.2-.708-.521-.888l-5.011-2.795M38.238 59.407c.314-.182.702-.182 1.016 0l8.418 4.857c.314.182.508.518.508.881v9.722c0 .363-.194.699-.508.881l-8.417 4.861c-.314.181-.702.181-1.017 0l-8.415-4.861c-.314-.182-.508-.518-.508-.881v-9.723c0-.362.194-.698.508-.88l8.415-4.857M22.93 65.064c0-.366-.192-.702-.508-.883l-8.415-4.843c-.144-.084-.303-.127-.464-.133h-.087c-.16.006-.32.049-.464.133l-8.416 4.843c-.313.181-.509.517-.509.883l.018 13.04c0 .182.095.351.254.439.156.094.349.094.505 0l5-2.864c.316-.188.509-.519.509-.882v-6.092c0-.364.192-.699.507-.881l2.13-1.226c.158-.093.332-.137.508-.137.174 0 .352.044.507.137l2.128 1.226c.315.182.509.517.509.881v6.092c0 .363.195.696.509.882l5 2.864c.157.094.353.094.508 0 .155-.089.252-.258.252-.439l.019-13.04" />
  </symbol>
  <symbol  id="git" xmlns="http://www.w3.org/2000/svg" viewBox="0 0 128 128">
    <path d="M76.004 50.588c-7.655 0-11.46 3.996-11.46 9.75 0 3.704 1.852 6.328 4.304 7.53-1.2 1.1-2.2 2.064-3.102 3.014s-1.452 1.957-1.452 3.06c0 1.352.55 2.605 2.202 3.303-1.75 1.654-2.753 2.854-2.753 5.107 0 3.953 3.453 6.256 12.51 6.256 8.708 0 13.76-3.25 13.76-9.007 0-6.653-5.103-6.904-13.76-7.456l-4.904-.3 1.652-2.652c.9.25 2.352.45 3.955.45 6.304 0 10.658-3.252 10.658-8.808 0-2.302-1.137-3.903-2.037-5.055l4.42-.35V51h-9.39c-1.15 0-2.453-.412-4.605-.412zm2.252 28.51c2.404.15 4.306.25 4.306 1.854 0 2.7-3.955 2.902-6.856 2.902-3.504 0-6.056-.602-6.056-2.603 0-1.002.65-1.852 1.302-2.652l7.304.5zm-1.95-14.712c-3.304 0-4.655-1.703-4.655-4.154 0-3.253 2.05-4.605 4.804-4.605 2.852 0 4.554 1.552 4.554 4.504 0 2.604-1.902 4.255-4.703 4.255zm22.866-17.702c2.902 0 4.554-1.652 4.554-4.506s-1.652-4.403-4.554-4.403c-2.853 0-4.505 1.553-4.505 4.403s1.652 4.506 4.505 4.506zM103 71.455V51h-9.733l-.55 3.896 2.667.874c.502.15.616.423.616.973v14.712c0 .752-.422.902-1.123 1.003l-2.877.35V77h15v-4.192l-2.876-.35c-.753-.1-1.124-.2-1.124-1.003zm22.418-1.04c-1.202.45-2.632.8-4.035.8-2.7 0-3.383-1.15-3.383-4.103V55h7v-5h-6.638c-.4 0-.362-.003-.362-.353V43h-4.793c-.55 5-3.207 7.196-7.207 7.698V55h4.003c.4 0-.003.353-.003.652v13.11c0 5.657 2.454 8.058 8.408 8.058 2.854 0 6.107-.95 8.26-2l-1.25-4.405zm-95.68-31.61c-1.317-1.318-3.455-1.318-4.773 0l-4.75 4.75 6.027 6.027c1.4-.473 3.007-.156 4.124.96a4.01 4.01 0 0 1 .952 4.149l5.81 5.81a4.01 4.01 0 0 1 4.149.953c1.57 1.568 1.57 4.1 0 5.68s-4.1 1.57-5.68 0c-1.18-1.18-1.624-2.914-1.025-4.368L29 57.35v14.257c0 .19.895.44 1.214.76 1.568 1.568 1.644 4.1.075 5.68a3.97 3.97 0 0 1-5.642 0c-1.568-1.57-1.55-4.112.02-5.68.388-.387.333-.68 1.333-.876V57.1c-1-.196-.927-.487-1.314-.876-1.188-1.188-1.474-2.93-.865-4.4l-5.942-5.943L2.2 61.58c-1.32 1.32-1.32 3.457 0 4.774l22.882 22.88a3.38 3.38 0 0 0 4.773 0L52.62 66.46a3.38 3.38 0 0 0 0-4.774l-22.882-22.88z"/>
  </symbol>
</svg>
